<?xml version="1.0" encoding="utf-8"?>
<!-- Generator: Adobe Illustrator 25.3.1, SVG Export Plug-In . SVG Version: 6.00 Build 0)  -->
<svg version="1.1" id="Layer_1" xmlns="http://www.w3.org/2000/svg" xmlns:xlink="http://www.w3.org/1999/xlink" x="0px" y="0px"
	 viewBox="0 0 1750.1 470" style="enable-background:new 0 0 1750.1 470;" xml:space="preserve">
<style type="text/css">
	.st0{fill:#0057B7;}
</style>
<g>
	<g>
		<path class="st0" d="M702.7,238.5h63.1v8.6h90.9v-8.6H887v8.6h161v-8.6h130.8c2.4,0,4.3-1.9,4.3-4.3c0-2.4-1.9-4.3-4.3-4.3H1048
			v-10.1H887v0.6v9.5h-30.3V224h-90.9v5.8h-63h-0.1c0.2-2.9,0.7-7.2,1.3-10.1h-58.6h-0.1c-0.1,1.3-0.2,2.5-0.3,3.6
			c-0.2,1.8-0.3,3.4-0.4,4.9c0,0.5-0.1,1.1-0.1,1.6H621c0-0.5,0-1.1-0.1-1.6c-0.1-1.6-0.2-3.3-0.3-5.2c-0.1-1-0.1-2.1-0.2-3.3h-0.1
			h-58.8c0.6,2.9,1,7.2,1.1,10.1h-88.3v-9.5v-0.6h-56.3v0.6v9.5h-45v-9.5v-0.6H211.7v10.1h-45c-10.1,0-24.7-6.1-31.9-13.2
			l-24.8-24.8c-1.7-1.7-4.4-1.7-6.1,0c-1.7,1.7-1.7,4.4,0,6.1l24.8,24.8c8.8,8.8,25.5,15.8,38,15.8h45v8.6h161.4v-8.6h45v8.6h56.3
			v-8.6h88.3c-0.1,2.9-0.5,5.8-1,8.6h0.1h58.7c0.3-2.9,0.4-5.8,0.5-8.6h23.4c0.1,2.9,0.3,5.8,0.6,8.6h58.6h0.1
			C703.2,244.2,702.9,241.3,702.7,238.5z"/>
		<path class="st0" d="M555.3,265.9h-81v-10v-0.1h-56.3v0.1v10H268v-10v-0.1h-56.3v10.1h-28.5c-12.5,0-29.2,6.6-38,15.4l-21.1,20.9
			c-1.7,1.7-1.7,4.4,0,6c0.8,0.8,2,1.2,3.1,1.2c1.1,0,2.2-0.4,3.1-1.3l21.1-20.8c7.1-7.1,21.7-12.9,31.8-12.9h28.5v8.7H268v-8.7
			h150.1v8.7h192.8c1.3-2.9,2.5-4.7,3.6-7.4c0.2-0.5,0.4-1.3,0.6-1.3h35.8c1.3,2.9,2.8,5.8,4.4,8.7h72.6h0.8
			c-4.9-2.9-9.1-5.8-12.6-8.7h76.4c-2.2,1.4-4.8,4.5-7.7,6.4c-0.3,0.2-0.6,0.4-0.9,0.6c-1.1,0.7-2.3,1.5-3.6,1.6l-0.1,0h76.5v-8.7
			H887v8.7h56.3v-8.7h213.8c2.4,0,4.3-1.9,4.3-4.3c0-2.4-1.9-4.3-4.3-4.3H943.3v-10.1H887v0.1v10h-30.3v-10v-0.1h-90.9v0.1v2.8h34.7
			c-0.7,2.9-1.5,4.3-2.5,7.2h-88.2c-0.2-0.4-0.4-0.8-0.7-1.3c-1.4-2.8-2.5-6.4-3.4-8.8h-0.1H646c0.5,2.9,1.2,5.8,2,10.1h-30.3
			c0.7-4.3,1.4-7.2,1.9-10.1h-59.7h-0.1c-1,2.5-2.2,6.1-3.7,8.8C555.8,265,555.5,265.5,555.3,265.9z M545.8,274.5
			c-0.3,0-2.8,1.3-4.4,2c-5.4,2.6-11,2.3-19.7,2.3h-47.4v-4.3H545.8z"/>
		<path class="st0" d="M710.7,202.4h81.5c0.4,1.4,0.7,2.9,1,2.9h63.7c-0.1-0.4-0.4-2.1-0.5-2.9H887v9.8v0.3h56.3v-10.1h213.8
			c2.4,0,4.3-1.9,4.3-4.3c0-2.4-1.9-4.3-4.3-4.3H943.3v-8.7H887v8.7h-32.9c-1.1-2.9-2.5-5.8-4.1-8.7h-74.7h-1c0.6,0,1.1,0.1,1.6,0.3
			c1,0.3,1.9,0.8,2.8,1.3c0.7,0.4,1.3,0.9,2,1.4c2.5,1.8,4.7,4.3,6.5,5.7h-69.8c1.7-1.8,3.5-3.3,5.5-4.6c2.8-1.9,5.9-3.2,9.3-4.1
			h-1.4h-72.4c-2,2.9-3.8,5.8-5.4,8.7h-38.4c-1.3-2.9-2.7-5.8-4.3-8.7H418.1v8.7H268v-8.7h-56.3v8.7h-16.2c-10.1,0-24.7-5.8-31.9-13
			l-56-55.9c0.6-1.4,1-3,1-4.6c0-6.5-5.3-11.8-11.8-11.8c-6.5,0-11.8,5.3-11.8,11.8c0,6.5,5.3,11.8,11.8,11.8c1.7,0,3.3-0.3,4.7-1
			c0,0,0,0,0,0l56,55.8c8.8,8.8,25.5,15.6,38,15.6h16.2v10.1H268v-0.3v-9.8h150.1v9.8v0.3h56.3v-0.3v-9.8h79.7c1.4,2,2.7,4,3.8,6.5
			c0.5,1.1,0.9,2.3,1.3,3.6h0.2h60c-0.5-2.5-1-6.1-1.7-8.9c-0.1-0.4-0.2-0.8-0.3-1.2h32.1c-0.1,0.4-0.3,0.8-0.4,1.3
			c-0.9,2.8-1.6,6.4-2.3,8.8h59.3h0.2c0.3-1.1,0.6-2.1,1-3.1C708.3,206.7,709.4,204.5,710.7,202.4z M474.3,187.9h42.9
			c10.9,0,19.9,1.5,26.9,5.8h-69.8V187.9z"/>
		<path class="st0" d="M582.8,159.1l33.2,0c-3.6-2.9-6.8-4.7-9.4-7.3l-83.4-83.6c-1.4,0.6-3,1-4.6,1c-6.5,0-11.8-5.3-11.8-11.8
			c0-6.5,5.3-11.8,11.8-11.8c6.5,0,11.8,5.3,11.8,11.8c0,1.7-0.4,3.3-1,4.7c0,0,0,0.1,0,0.1l83.4,83.5c7.1,7.2,21.7,13.4,31.8,13.4
			l43.3,0c4.9-2.9,10.1-5.2,15.8-7.1c2.9-1,6-2.2,8.9-3h81.8c6.9,1.6,24.5,7.4,27.2,10.1h1.5h32.5c-3.6-2.9-6.8-4.7-9.4-7.3
			l-49.2-49.4c-1.4,0.6-3,1-4.7,1c-6.5,0-11.8-5.3-11.8-11.8c0-6.5,5.3-11.8,11.8-11.8c6.5,0,11.8,5.3,11.8,11.8
			c0,1.7-0.3,3.3-1,4.7c0,0,0,0.1,0,0.1l49.2,49.4c7.2,7.2,21.7,13.4,31.9,13.4h2.7v-8.7h168.2v8.7h80.2c2.4,0,4.3,1.9,4.3,4.3
			c0,2.4-1.9,4.3-4.3,4.3h-80.2v8.7H887v-8.7h-2.7h-49.2c3.3,2.9,6.4,5.4,9.1,8.7h-0.1H664.8h-0.1c0.2-0.2,8.4-8.7,9.9-8.7h-31.2
			h-47.2c1.5,1.4,3,2.3,4.4,3.7c1.6,1.7,3.1,3.5,4.5,4.9h-0.2H418.1v-8.7h-37.8v8.7H211.7v-8.7h-6c-12.5,0-29.1-7.1-38-16
			l-27.1-27.4c-1.7-1.7-1.7-4.4,0-6.1c1.7-1.7,4.4-1.6,6.1,0.1l27.1,27.3c7.2,7.2,21.7,13.4,31.8,13.4h6v-8.7h168.6v8.7h22
			c-3.6-2.9-6.8-4.8-9.4-7.3l-49.2-49.4c-1.4,0.6-3,1-4.7,1c-6.5,0-11.8-5.3-11.8-11.8c0-6.5,5.3-11.8,11.8-11.8
			c6.5,0,11.8,5.3,11.8,11.8c0,1.7-0.3,3.3-1,4.7c0,0,0,0,0,0l49.1,49.2c4.5,4.5,11.9,8.5,19.1,10.9v-5.9h122.4
			C557.1,150.4,571.2,153.3,582.8,159.1z"/>
		<path class="st0" d="M826.7,309.2l3.7,10.1h26.3v-10.1h13.9c-3.6,2.9-6.8,4.6-9.4,7.2l-37.3,37.4v0.1c-1.4-0.6-3-1-4.7-1
			c-6.5,0-11.8,5.3-11.8,11.8c0,6.5,5.3,11.8,11.8,11.8c6.5,0,11.8-5.3,11.8-11.8c0-1.7-0.3-3.3-1-4.7v0l37.5-37.3
			c4.5-4.5,12.4-8.6,19.6-11v7.6h168.2v-10.1h80.2c2.4,0,4.3-1.9,4.3-4.3c0-2.4-1.9-4.3-4.3-4.3h-80.2v-8.6H887v8.6h-30.3v-8.6H661
			h-0.5c2.5,2.9,5.4,5.8,8.5,8.6h-16.3h-55.9c1.1-1,2.2-2,3.3-3c2-1.9,3.8-3.8,5.5-5.6h-0.4H418.1v8.6h-37.8v-8.6H211.7v8.6h-14.2
			c-12.5,0-29.2,7-38,15.9l-57.9,58c-1.4-0.6-3-0.9-4.6-0.9c-6.5,0-11.8,5.3-11.8,11.8c0,6.5,5.3,11.8,11.8,11.8
			c6.5,0,11.8-5.3,11.8-11.8c0-1.7-0.3-3.3-1-4.7l57.9-58c7.1-7.1,21.7-13.3,31.9-13.3h14.2v10.1h168.6v-10.1h17.6
			c-3.6,2.9-6.8,4.6-9.4,7.2l-37.3,37.4v0.1c-1.4-0.6-3-1-4.7-1c-6.5,0-11.8,5.3-11.8,11.8c0,6.5,5.3,11.8,11.8,11.8
			c6.5,0,11.8-5.3,11.8-11.8c0-1.7-0.3-3.3-1-4.7v0l37.3-37.3c5.4-5.4,14.8-10.1,23.5-12.1v8.8h115.1c4.8,0,9.5,0,13.9,0
			c7.5-1.4,14.6-2.1,21.1-3.8c5.6-1.4,10.8-3.4,15.6-6.3h39.5c-3.6,2.9-6.8,4.6-9.4,7.2l-85.4,85.4c-1.4-0.6-3-1-4.6-1
			c-6.5,0-11.8,5.3-11.8,11.8c0,6.5,5.3,11.8,11.8,11.8c6.5,0,11.8-5.3,11.8-11.8c0-1.7-0.4-3.3-1-4.7c0,0,0,0,0,0l85.4-85.5
			c7.1-7.1,21.7-13.3,31.8-13.3h28.7c6.5,4.3,13.9,7.2,22.3,10.1h90.8c2.2-0.9,4.4-1.8,6.4-2.5c5.8-2.3,10.6-4.7,14.4-7.6H826.7"/>
	</g>
	<g>
		<path class="st0" d="M1223.3,192.8h58v6.8h-50V230h46.9v6.8h-46.9V270h50.6v6.8h-58.6V192.8z"/>
		<path class="st0" d="M1293.5,192.8h8.9l49,71.1h0.2v-71.1h8v84.1h-8.9l-49-71.1h-0.2v71.1h-8V192.8z"/>
		<path class="st0" d="M1374.1,192.8h58v6.8h-50V230h46.9v6.8h-46.9V270h50.6v6.8h-58.6V192.8z"/>
		<path class="st0" d="M1444.4,192.8h38.5c13.9,0,25.5,6.7,25.5,21.9c0,10.6-5.5,19.3-16.4,21.4v0.2c10.9,1.4,14.1,8.9,14.7,19
			c0.4,5.8,0.4,17.3,3.9,21.5h-8.8c-2-3.3-2-9.5-2.2-13.1c-0.7-11.8-1.6-24.8-16.8-24.3h-30.4v37.3h-8V192.8z M1452.4,232.7h29.9
			c9.8,0,18.1-6.1,18.1-16.4c0-10.2-6.1-16.7-18.1-16.7h-29.9V232.7z"/>
		<path class="st0" d="M1592.1,276.8h-5.8l-1.1-15.3h-0.2c-5.7,12-17,17.1-29.1,17.1c-26.5,0-39.7-20.8-39.7-43.8
			s13.2-43.8,39.7-43.8c17.7,0,32,9.5,35.1,27.9h-8c-1.1-9.7-11.1-21.1-27.1-21.1c-22.2,0-31.7,18.6-31.7,37s9.4,37,31.7,37
			c18.6,0,29.4-13.1,29.1-30.8h-28.6v-6.8h35.7V276.8z"/>
		<path class="st0" d="M1627,242.2l-33.1-49.4h9.5l27.7,42.6l27.5-42.6h9.5l-33.2,49.4v34.6h-8V242.2z"/>
	</g>
</g>
</svg>
