<svg width="88" height="88" xmlns="http://www.w3.org/2000/svg"><path d="M67.274 60.138v2.387h3.26c.655 0 1.183.529 1.183 1.185 0 .674-.546 1.203-1.202 1.203h-3.259V67.7L21.998 67.7l-6.707 6.744c.152.319.24.676.265 1.06l.008.234A3.257 3.257 0 0 1 12.304 79a3.257 3.257 0 0 1-3.258-3.262 3.257 3.257 0 0 1 3.259-3.262c.455 0 .874.09 1.274.255l7.119-7.142v-.676h-.018v-2.388h.019v-2.387h46.575Zm-31.026-9.969v2.788h37.781c.656 0 1.202.529 1.202 1.185 0 .674-.546 1.203-1.202 1.203H36.248v2.387h-15.55v-2.37h-1.93c-2.69 0-4.7-.373-6.605 1.373l-.204.195-.929.857a1.144 1.144 0 0 1-.837.364c-.292 0-.601-.11-.838-.346a1.167 1.167 0 0 1 0-1.677l.929-.893c2.058-2.06 4.247-2.265 6.947-2.28h.609l.947.002v.019l1.893-.001v-.018h.019V50.17h15.549ZM9.391 40.054c.474-.473 1.22-.455 1.694.019l1.147 1.184c1.966 1.968 4.024 1.732 6.81 1.732h1.657V40.2H65.27v2.789h12.527c.656 0 1.202.528 1.202 1.184 0 .656-.546 1.203-1.202 1.203H65.271v2.387H20.7v-2.387h-2.313c-3.123-.008-5.565-.14-7.847-2.424l-1.148-1.22a1.167 1.167 0 0 1 0-1.678Zm0-9.987c.474-.473 1.22-.455 1.694.019l1.147 1.184c1.966 1.968 4.024 1.732 6.81 1.732h1.657v-2.388h15.549v2.388h37.781c.656 0 1.202.546 1.202 1.166 0 .674-.546 1.203-1.202 1.203H36.248v2.806h-15.55V35.39h-2.312c-3.123-.008-5.565-.14-7.847-2.424l-1.148-1.22a1.167 1.167 0 0 1 0-1.678ZM27.217 9a3.257 3.257 0 0 1 3.26 3.262c0 .456-.092.875-.256 1.276l6.337 6.306c.418.422.93.827 1.504 1.203h29.212v2.387h3.26c.655 0 1.183.528 1.183 1.184 0 .675-.546 1.203-1.202 1.203h-3.259v2.388H20.699V25.82h-.019v-2.387h.019v-2.388H34.35l-5.84-5.795-.204.084a3.257 3.257 0 0 1-4.349-3.072A3.257 3.257 0 0 1 27.218 9Z" fill="#0057B7" fill-rule="nonzero"/></svg>